# xmcd
# 
# Track frame offsets:
#     150
#     13125
#     32850
# 
# Disc length: 608
# 
# Revision: 2
# Processed by: cddbd v1.5.2PL0 Copyright (c) Steve Scherf et al.
# Submitted via: fre:ac v1.0.31
# 
DISCID=1e025e03
DTITLE=CHARCOAL FILTER - Tightrope
DYEAR=2000
DGENRE=JPop
TTITLE0=Tightrope
TTITLE1=Tightrope-Medieval version-
TTITLE2=Tightrope-Instrumental version-
EXTD=
EXTT0=
EXTT1=
EXTT2=
PLAYORDER=
